<svg width="23" height="22" viewBox="0 0 23 22" fill="none" xmlns="http://www.w3.org/2000/svg">
<circle cx="12" cy="10" r="6" fill="white"/>
<path d="M11.5 7V10L14 12.5" stroke="black" stroke-width="1.5" stroke-linecap="round"/>
<path d="M11.5 20.5C11.5 20.5 9.9665 20.6381 9 20.5C8.89183 20.4845 8.77933 20.464 8.66409 20.4394C6.83073 20.0477 5.23451 18.9109 4 17.5V17.5C3.31658 16.719 3.06609 16.3698 2.5 15.5C2.12311 14.9209 1.81868 14.1477 1.5851 13.4058C1.09431 11.8469 1.20941 10.1624 1.60578 8.57687V8.57687C1.86525 7.53901 2.26916 6.52898 2.79993 5.60013V5.60013C3.59159 4.21472 4.65855 3.00609 5.93506 2.0487L6 2" stroke="white" stroke-width="1.5" stroke-linecap="round"/>
<path d="M6.5 4V2C6.5 1.72386 6.27614 1.5 6 1.5H4" stroke="white" stroke-width="1.5" stroke-linecap="round"/>
<path d="M12 1C12 1 13.5335 0.861929 14.5 1C15.7225 1.17465 16.4271 1.3885 17.5 2C19.3033 3.02779 19.9888 4.18732 21 6C21.3208 6.57497 21.603 7.30969 21.8336 8.01797C22.3574 9.62717 22.2868 11.3527 21.8764 12.9944V12.9944C21.6266 13.9934 21.2409 14.9534 20.73 15.8474L20.7001 15.8999C19.9084 17.2853 18.8415 18.4939 17.5649 19.4513L17.5 19.5" stroke="white" stroke-width="1.5" stroke-linecap="round"/>
<path d="M17 17.5V19.5C17 19.7761 17.2239 20 17.5 20H19.5" stroke="white" stroke-width="1.5" stroke-linecap="round"/>
</svg>
