<svg viewBox="0 0 20 18" fill="none" xmlns="http://www.w3.org/2000/svg" id="anonym">
<path d="M20 7H0C0 9.20914 1.79086 11 4 11H16C18.2091 11 20 9.20914 20 7Z" fill="currentColor"/>
<path d="M3 6H17L15.339 1.84758C15.1182 1.29553 14.7352 0.823439 14.2404 0.49363C13.7576 0.171758 13.1904 0 12.6101 0H12.4083C11.8161 0 11.237 0.175314 10.7442 0.503849L10 1L9.20129 0.467528C8.74401 0.162676 8.20673 0 7.65715 0C7.22499 0 6.79876 0.100618 6.41223 0.293887L6.02018 0.489909C5.36301 0.818496 4.84927 1.37683 4.57639 2.05902L3 6Z" fill="currentColor"/>
<line x1="1" y1="13.5" x2="19" y2="13.5" stroke="currentColor"/>
<path d="M4.08583 17.1894L3.7 16.9C2.94458 16.3334 2.5 15.4443 2.5 14.5V14.4494C2.5 13.8675 2.82874 13.3356 3.34917 13.0754C3.44942 13.0253 3.55486 12.9863 3.66359 12.9591L4.90285 12.6493C5.29945 12.5501 5.70672 12.5 6.11553 12.5H6.4923C6.82857 12.5 7.16263 12.5542 7.48165 12.6605L7.79487 12.765C8.25188 12.9173 8.64508 13.2176 8.91229 13.6184C9.28311 14.1747 9.37488 14.8753 9.16349 15.5095C9.05644 15.8307 8.87539 16.1246 8.63603 16.364L8.5 16.5L7.96353 17.0365C7.6587 17.3413 7.28708 17.571 6.87812 17.7073C6.30812 17.8973 5.69188 17.8973 5.12188 17.7073L4.99114 17.6637C4.66584 17.5553 4.36015 17.3951 4.08583 17.1894Z" fill="currentColor"/>
<path d="M12.5858 17.1894L12.2 16.9C11.4446 16.3334 11 15.4443 11 14.5V14.4494C11 13.8675 11.3287 13.3356 11.8492 13.0754C11.9494 13.0253 12.0549 12.9863 12.1636 12.9591L13.4028 12.6493C13.7995 12.5501 14.2067 12.5 14.6155 12.5H14.9923C15.3286 12.5 15.6626 12.5542 15.9816 12.6605L16.2949 12.765C16.7519 12.9173 17.1451 13.2176 17.4123 13.6184C17.7831 14.1747 17.8749 14.8753 17.6635 15.5095C17.5564 15.8307 17.3754 16.1246 17.136 16.364L17 16.5L16.4635 17.0365C16.1587 17.3413 15.7871 17.571 15.3781 17.7073C14.8081 17.8973 14.1919 17.8973 13.6219 17.7073L13.4911 17.6637C13.1658 17.5553 12.8601 17.3951 12.5858 17.1894Z" fill="currentColor"/>
</svg>
