<svg viewBox="0 0 26 26" fill="none" xmlns="http://www.w3.org/2000/svg" id="edit">
<path d="M11.5 5.0647H1.5C1.22386 5.0647 1 5.28855 1 5.5647V23.5647C1 23.8408 1.22386 24.0647 1.5 24.0647H19.5C19.7761 24.0647 20 23.8408 20 23.5647V13.5647" stroke="currentColor" stroke-width="2" stroke-linecap="round"/>
<path d="M13.3516 15.5944L9.23544 16.4176C8.88557 16.4876 8.57712 16.1791 8.64709 15.8293L9.47031 11.7131C9.48967 11.6163 9.53725 11.5274 9.60705 11.4576L18 3.0647L22 7.0647L13.607 15.4577C13.5372 15.5275 13.4483 15.575 13.3516 15.5944Z" fill="currentColor"/>
<path d="M19 2.06472L23 6.06472C23 6.06472 25.4269 4.58801 25.5 3.06472C25.5504 2.01441 25.3183 1.22513 24.5 0.564716C23.7252 -0.0606102 22.988 -0.0587785 22 0.0647161C20.6028 0.239364 19 2.06472 19 2.06472Z" fill="currentColor"/>
</svg>
