<svg viewBox="0 0 24 25" fill="none" xmlns="http://www.w3.org/2000/svg" id="friends">
<circle cx="7.69233" cy="4.48719" r="4.48719" fill="currentColor"/>
<path d="M14.7436 17.6282C14.7436 15.673 13.9669 13.798 12.5845 12.4155C11.202 11.033 9.32693 10.2563 7.37181 10.2563C5.41668 10.2563 3.54163 11.033 2.15915 12.4155C0.776671 13.798 2.95216e-07 15.673 0 17.6282L7.37181 17.6282H14.7436Z" fill="currentColor"/>
<circle cx="17.3077" cy="4.68759" r="3.64584" fill="currentColor"/>
<path d="M23.9584 16.7068C23.9584 15.3361 23.624 13.9926 22.9928 12.8271C22.3616 11.6616 21.4585 10.7203 20.3851 10.1089C19.3117 9.49752 18.1104 9.24028 16.9161 9.36607C15.7218 9.49186 14.319 9.89188 13.3614 10.7172C15.4022 12.4563 16.1258 16.7068 16.1258 16.7068L23.9584 16.7068Z" fill="currentColor"/>
</svg>
