<svg width="25" height="26" viewBox="0 0 25 26" fill="none" xmlns="http://www.w3.org/2000/svg">
<path d="M13.8443 10.5H11.2499C10.4349 10.5 9.63813 10.2588 8.96 9.80666L8.87706 9.75137C8.6268 9.58454 8.35542 9.45181 8.07009 9.3567C7.37548 9.12516 6.62452 9.12516 5.92991 9.3567C5.64458 9.45181 5.3732 9.58454 5.12294 9.75137L4.83205 9.9453C4.28279 10.3115 3.81147 10.7828 3.4453 11.3321L2 13.5L0.836232 15.8275C0.61333 16.2733 0.458339 16.75 0.376399 17.2416L0.0680304 19.0918C0.0227542 19.3635 0 19.6384 0 19.9138V22.5V23.3486C0 23.7733 0.125723 24.1886 0.361325 24.542C0.760334 25.1405 1.43206 25.5 2.15139 25.5H2.38783C2.79041 25.5 3.18746 25.4063 3.54754 25.2262L4.27427 24.8629C4.75495 24.6225 5.19373 24.3063 5.57374 23.9263L6.14991 23.3501C6.38273 23.1173 6.63799 22.908 6.91195 22.7254L8.24038 21.8397C9.06172 21.2922 10.0268 21 11.0139 21H14.1229C15.3331 21 16.5022 21.4389 17.4133 22.2353L17.7162 22.5L20.0691 24.6496C20.668 25.1966 21.4498 25.5 22.2609 25.5H22.8486C23.5679 25.5 24.2397 25.1405 24.6387 24.542C24.8743 24.1886 25 23.7733 25 23.3486V22V19.7003C25 19.2357 24.9353 18.7734 24.8076 18.3267L24.1277 15.9468C24.0427 15.6496 23.9304 15.3609 23.7922 15.0844L22.7369 12.9738C22.5794 12.6588 22.3891 12.3614 22.1691 12.0864L21.1222 10.7778C20.7144 10.268 20.1814 9.87255 19.5752 9.63009C18.5733 9.22931 17.4478 9.27612 16.4826 9.75872L16.0337 9.98316C15.3539 10.3231 14.6043 10.5 13.8443 10.5Z" fill="white"/>
<path d="M13 11.5L13.0153 11.4694C13.915 9.67005 13.6487 7.50677 12.3395 5.97936L11.8809 5.44435C11.6293 5.15091 11.4371 4.81144 11.3149 4.44479L11.2927 4.37812C11.1027 3.80812 11.1027 3.19188 11.2927 2.62188V2.62188C11.429 2.21292 11.6587 1.8413 11.9635 1.53647L12.5 1" stroke="white" stroke-width="2" stroke-linecap="round"/>
<path d="M10 16H13" stroke="black" stroke-width="1.5" stroke-linecap="round"/>
<path d="M4 16H7" stroke="black" stroke-width="1.5" stroke-linecap="round"/>
<path d="M5.5 17.5V14.5" stroke="black" stroke-width="1.5" stroke-linecap="round"/>
<circle cx="16.75" cy="15.75" r="0.75" fill="black"/>
<circle cx="18.75" cy="17.75" r="0.75" fill="black"/>
<circle cx="20.75" cy="15.75" r="0.75" fill="black"/>
<circle cx="18.75" cy="13.75" r="0.75" fill="black"/>
</svg>
