<svg width="26" height="22" viewBox="0 0 26 22" fill="none" xmlns="http://www.w3.org/2000/svg">
<circle cx="4.5" cy="7.5" r="3.5" fill="white"/>
<circle cx="12.5" cy="4.5" r="4.5" fill="white"/>
<circle cx="20.5" cy="7.5" r="3.5" fill="white"/>
<path d="M9.70156 9.5H12.5H15.6716C16.202 9.5 16.7107 9.71071 17.0858 10.0858L17.3284 10.3284C18.0786 11.0786 18.5 12.096 18.5 13.1569V20.5C18.5 21.0523 18.0523 21.5 17.5 21.5H7.5C6.94772 21.5 6.5 21.0523 6.5 20.5V13.4225C6.5 12.2074 7.05236 11.0581 8.00122 10.299L8.45217 9.93826C8.8068 9.65456 9.24742 9.5 9.70156 9.5Z" fill="white"/>
<path d="M3.44187 11.5H5.5V21.5H3C2.35089 21.5 1.71929 21.2895 1.2 20.9C0.444583 20.3334 0 19.4443 0 18.5V15.0523C0 14.3711 0.231843 13.7102 0.657394 13.1783L1.09927 12.6259C1.66858 11.9143 2.53052 11.5 3.44187 11.5Z" fill="white"/>
<path d="M22.0581 11.5H19.5V21.5H22.5C23.1491 21.5 23.7807 21.2895 24.3 20.9C25.0554 20.3334 25.5 19.4443 25.5 18.5V15.0523C25.5 14.3711 25.2682 13.7102 24.8426 13.1783L24.4007 12.6259C23.8314 11.9143 22.9695 11.5 22.0581 11.5Z" fill="white"/>
</svg>
