<svg width="29" height="29" viewBox="0 0 29 29" fill="none" xmlns="http://www.w3.org/2000/svg">
<path d="M24 17C24 23.6274 18.6274 29 12 29C5.37258 29 0 23.6274 0 17C0 10.3726 5.37258 5 12 5C18.6274 5 24 10.3726 24 17ZM2.05857 17C2.05857 22.4905 6.5095 26.9414 12 26.9414C17.4905 26.9414 21.9414 22.4905 21.9414 17C21.9414 11.5095 17.4905 7.05857 12 7.05857C6.5095 7.05857 2.05857 11.5095 2.05857 17Z" fill="white"/>
<circle cx="8" cy="19" r="1" fill="white"/>
<circle cx="16" cy="19" r="1" fill="white"/>
<path d="M8.5 23C8.5 23 9.46958 23.7904 10.5 24C11.6481 24.2335 12.3697 24.3083 13.5 24C14.3425 23.7702 15.5 23 15.5 23" stroke="white" stroke-width="2" stroke-linecap="round"/>
<path d="M1 17L2.97183 16.2606C4.30844 15.7593 5.52226 14.9777 6.53166 13.9683L7.12951 13.3705C7.70765 12.7923 8.21271 12.1455 8.63337 11.4444L9.41215 10.1464C9.45147 10.0809 9.5468 10.0819 9.58472 10.1483L10.1147 11.0758C11.0209 12.6616 12.3441 13.969 13.9407 14.856L14.7305 15.2947C15.5724 15.7625 16.4775 16.1061 17.4176 16.315L19.4284 16.7619C20.1407 16.9201 20.8681 17 21.5977 17H23" stroke="white" stroke-width="2" stroke-linecap="round"/>
<path d="M19.7929 7.79289C19.4024 8.18342 19.4024 8.81658 19.7929 9.20711C20.1834 9.59763 20.8166 9.59763 21.2071 9.20711L19.7929 7.79289ZM28 1H29C29 0.447715 28.5523 0 28 0V1ZM21.5 0C20.9477 0 20.5 0.447715 20.5 1C20.5 1.55228 20.9477 2 21.5 2V0ZM27 7C27 7.55228 27.4477 8 28 8C28.5523 8 29 7.55228 29 7H27ZM21.2071 9.20711L28.7071 1.70711L27.2929 0.292893L19.7929 7.79289L21.2071 9.20711ZM28 0H21.5V2H28V0ZM29 7V1H27V7H29Z" fill="white"/>
</svg>
