<svg viewBox="0 0 66 49" fill="none" xmlns="http://www.w3.org/2000/svg" id="media">
<rect x="21.5" y="20.5" width="31" height="28.1818" rx="3" fill="currentColor"/>
<path d="M66 43.5423V26.8508C66 25.681 65.4682 24.5746 64.5548 23.8438C63.872 23.2976 63.0236 23 62.1492 23H61.1927C60.0948 23 59.0275 23.3613 58.1554 24.0282L51 29.5V40L58.1153 45.8597C59.0105 46.5969 60.1341 47 61.2938 47H62.5423C63.169 47 63.7839 46.8297 64.3213 46.5072C65.3627 45.8824 66 44.7568 66 43.5423Z" fill="currentColor"/>
<path d="M17 35V29L16.7705 28.9235C15.9272 28.6424 15.1253 28.2502 14.3857 27.7572L13.9782 27.4855C13.0009 26.8339 12.1501 26.0102 11.4674 25.0543C10.5052 23.7073 9.90402 22.1362 9.7212 20.4908L9.69681 20.2712C9.56664 19.0998 9.64637 17.9145 9.93223 16.7711L9.96488 16.6405C10.3168 15.2328 10.9916 13.9265 11.9359 12.8248L12.0594 12.6807C13.0044 11.5782 14.213 10.7326 15.5727 10.2227C16.8397 9.74761 18.2009 9.57788 19.5458 9.72731L19.8046 9.75607C21.2497 9.91663 22.6402 10.4001 23.8732 11.1707L24.3165 11.4478C25.428 12.1425 26.3921 13.0489 27.1539 14.1154L28.5 16H38.5V9.5C38.5 7.29086 36.7091 5.5 34.5 5.5H30.5L27.5894 0.926249C27.2223 0.349353 26.5859 0 25.9021 0H12.5979C11.9141 0 11.2777 0.349354 10.9106 0.92625L8 5.5H4C1.79086 5.5 0 7.29086 0 9.5V31C0 33.2091 1.79086 35 4 35H17Z" fill="currentColor"/>
<path d="M23.0737 15.0737L23.8293 15.8293C23.8923 15.8923 23.8477 16 23.7586 16H23.1803C22.4041 16 21.6385 16.1807 20.9443 16.5279L20.7257 16.6371C20.2451 16.8775 19.8063 17.1937 19.4263 17.5737L19.0737 17.9263C18.6937 18.3063 18.3775 18.7451 18.1371 19.2257L17.7455 20.0091C17.5823 20.3354 17.4554 20.6786 17.3669 21.0325L17.1493 21.9029C17.0501 22.2995 17 22.7067 17 23.1155V24.3234C17 24.4011 16.9152 24.4491 16.8486 24.4091L15.559 23.6354C14.8673 23.2204 14.3084 22.6168 13.9477 21.8954C13.6533 21.3066 13.5 20.6572 13.5 19.9989V19.1803C13.5 18.4041 13.6807 17.6385 14.0279 16.9443L14.3489 16.3023C14.7741 15.4518 15.4331 14.7401 16.2485 14.2509L16.3124 14.2125C17.0895 13.7463 17.9787 13.5 18.8849 13.5H19.3197C20.0959 13.5 20.8615 13.6807 21.5557 14.0279L21.7743 14.1371C22.2549 14.3775 22.6937 14.6937 23.0737 15.0737Z" fill="currentColor"/>
</svg>
