<svg viewBox="0 0 22 23" fill="none" xmlns="http://www.w3.org/2000/svg" id="paperclip">
<path d="M1 10.5L9.77976 2.55641C10.8869 1.55468 12.3268 1 13.8198 1V1C15.2285 1 16.5927 1.49388 17.6749 2.39571L17.7333 2.44446C18.5635 3.13625 19.1995 4.03202 19.5789 5.04383L19.6087 5.12308C20.1821 6.65231 20.1638 8.34058 19.5572 9.85698L19.223 10.6924C18.7467 11.8833 18.0178 12.9568 17.0867 13.8389L10.3313 20.2388C9.47644 21.0486 8.34371 21.5 7.16619 21.5V21.5C6.08959 21.5 5.04706 21.1226 4.22 20.4333L4.1033 20.3361C3.08739 19.4895 2.5 18.2354 2.5 16.913V16.913C2.5 15.6916 3.00138 14.5237 3.8869 13.6824L11.4419 6.50522C12.0867 5.89263 13.0293 5.71171 13.8551 6.04204V6.04204C14.5693 6.32774 15.091 6.95483 15.2418 7.70914L15.2564 7.78205C15.4093 8.54638 15.1836 9.33749 14.6505 9.90614L8 17" stroke="currentColor" stroke-width="2" stroke-linecap="round"/>
</svg>
