<svg viewBox="0 0 19 20" fill="none" xmlns="http://www.w3.org/2000/svg" id="push">
<circle cx="9" cy="10.5" r="3.5" stroke="currentColor" stroke-width="2"/>
<path d="M13 7.5V10.25V11.4847C13 12.3999 13.5572 13.2229 14.4069 13.5628V13.5628C15.0912 13.8365 15.8664 13.7558 16.4796 13.3469L16.4968 13.3355C16.8265 13.1156 17.0932 12.8135 17.2705 12.4591L17.4673 12.0655C17.8146 11.3707 17.9486 10.5887 17.8522 9.81796L17.7191 8.7524C17.575 7.59997 17.1646 6.49691 16.5204 5.53056L16.2119 5.06778C15.7401 4.36016 15.162 3.72959 14.4979 3.19832V3.19832C13.5124 2.40992 12.3594 1.85765 11.1274 1.58387L10.8268 1.51707C9.31393 1.18087 7.73363 1.32844 6.30913 1.93894V1.93894C5.44432 2.30958 4.65818 2.84182 3.99287 3.50713L3.32514 4.17486C2.45369 5.04631 1.7971 6.10869 1.40738 7.27786V7.27786C1.13756 8.08733 1 8.935 1 9.78825V10.7118C1 11.565 1.13756 12.4127 1.40738 13.2221V13.2221C1.7971 14.3913 2.45369 15.4537 3.32514 16.3251L3.37681 16.3768C4.11879 17.1188 4.99553 17.7124 5.96 18.1257L6.70025 18.443C7.55781 18.8105 8.48109 19 9.41408 19H9.69722C10.8727 19 12.0219 18.6521 13 18V18" stroke="currentColor" stroke-width="2"/>
</svg>
