<svg width="33" height="33" viewBox="0 0 33 33" fill="none" xmlns="http://www.w3.org/2000/svg">
<path d="M3.04003 17.8256C2.75102 17.9433 2.40019 18.0549 2.1085 18.0549C1.81186 18.0549 1.45404 17.9395 1.16229 17.8196C0.790296 17.6667 0.502522 17.3712 0.301561 17.0228C0.104 16.6803 0 16.2919 0 15.8965V15.504L-2.28621e-06 15.4989C-0.000173499 15.4142 -0.00955918 10.5155 0.108728 9.5549C0.293437 8.05489 1.00303 6.99999 1.50326 6.5C2.00349 6.00001 1.60948 6.39052 2 6L2.49979 5.50021L2.50044 5.49957C3.0005 4.99993 3.46819 4.84707 4.1085 4.55489C4.60997 4.32606 5.36229 4.17619 5.78689 4.10442C6.00069 4.06829 6.21726 4.05489 6.43408 4.05489H24.4005C24.6431 4.05489 24.7575 3.74642 24.6085 3.55489C24.3404 3.21024 24.2032 2.98111 24.1085 2.55489C24.0238 2.17366 24.0238 1.93611 24.1085 1.55489C24.2032 1.12866 24.2998 0.863623 24.6085 0.554887C24.8171 0.346242 25.2005 0.191248 25.4271 0.11268C25.5472 0.0710649 25.6708 0.0417639 25.7969 0.0259936C26.0121 -0.000932792 26.3659 -0.025993 26.6085 0.0548865C27.1324 0.229534 27.6947 0.68912 28.1085 1.0549C28.4623 1.36767 28.747 1.75104 29.1085 2.0549C29.5501 2.42607 29.8743 2.7829 30.1085 3.0549C30.2508 3.22014 30.3798 3.3663 30.4861 3.48518C30.6819 3.7041 30.902 3.89968 31.1216 4.09479L31.1282 4.10065C31.2582 4.21614 31.4208 4.36721 31.6085 4.5549C31.9172 4.86364 32.0138 5.12867 32.1085 5.55489C32.1932 5.93611 32.1932 6.17366 32.1085 6.55489C32.0628 6.76032 31.945 7.00004 31.8352 7.19326C31.6948 7.44038 31.5075 7.65592 31.3065 7.85689L27.9105 11.2529C27.7095 11.4539 27.494 11.6412 27.2469 11.7816C27.0537 11.8914 26.8139 12.0092 26.6085 12.0549C26.2273 12.1396 25.9897 12.1396 25.6085 12.0549C25.1823 11.9602 24.9172 11.8636 24.6085 11.5549C24.2998 11.2462 24.2032 10.9811 24.1085 10.5549C24.0238 10.1737 24.0238 9.93611 24.1085 9.55489C24.2032 9.12866 24.3404 8.89953 24.6085 8.55489C24.7575 8.36335 24.6431 8.05489 24.4005 8.05489H6.84557C6.36085 8.05489 5.88279 8.16774 5.44924 8.38451C5.22292 8.49768 5.00847 8.6352 4.82868 8.81325C4.74967 8.8915 4.66888 8.97726 4.6085 9.05489C4.55846 9.11922 4.50969 9.19437 4.46344 9.27407C4.17822 9.76562 4.1085 10.3453 4.1085 10.9136V16.0669C4.1085 16.3878 4.03378 16.7043 3.89026 16.9914C3.70659 17.3587 3.42039 17.6706 3.04003 17.8256Z" fill="white"/>
<path d="M29.1318 14.2293C29.4209 14.1116 29.7717 14 30.0634 14C30.36 14 30.7178 14.1154 31.0096 14.2353C31.3816 14.3882 31.6694 14.6837 31.8703 15.0321C32.0679 15.3746 32.1719 15.763 32.1719 16.1584V16.5509L32.1719 16.556C32.172 16.6407 32.1814 21.5394 32.0631 22.5C31.8784 24 31.1688 25.0549 30.6686 25.5549C30.1684 26.0549 30.5624 25.6643 30.1719 26.0549L29.6721 26.5547L29.6714 26.5553C29.1714 27.0549 28.7037 27.2078 28.0634 27.5C27.5619 27.7288 26.8096 27.8787 26.385 27.9504C26.1712 27.9866 25.9546 28 25.7378 28L7.77142 28C7.52877 28 7.41441 28.3085 7.56338 28.5C7.83144 28.8446 7.96866 29.0738 8.06338 29.5C8.14809 29.8812 8.14809 30.1188 8.06338 30.5C7.96866 30.9262 7.87211 31.1912 7.56338 31.5C7.35473 31.7086 6.97138 31.8636 6.74475 31.9422C6.62471 31.9838 6.50107 32.0131 6.375 32.0289C6.15976 32.0558 5.80602 32.0809 5.56338 32C5.03943 31.8253 4.47717 31.3658 4.06338 31C3.70956 30.6872 3.42487 30.3038 3.06338 30C2.62181 29.6288 2.2976 29.272 2.06338 29C1.92109 28.8347 1.7921 28.6886 1.68576 28.5697C1.48994 28.3508 1.26985 28.1552 1.05028 27.9601L1.04369 27.9542C0.913721 27.8387 0.751066 27.6877 0.563377 27.5C0.254641 27.1912 0.158092 26.9262 0.0633774 26.5C-0.0213394 26.1188 -0.0213394 25.8812 0.0633774 25.5C0.109032 25.2945 0.226833 25.0548 0.33663 24.8616C0.477045 24.6145 0.664412 24.3989 0.865385 24.198L4.26137 20.802C4.46234 20.601 4.67789 20.4137 4.925 20.2732C5.11822 20.1634 5.35794 20.0456 5.56338 20C5.9446 19.9153 6.18215 19.9153 6.56338 20C6.9896 20.0947 7.25464 20.1912 7.56338 20.5C7.87211 20.8087 7.96866 21.0738 8.06338 21.5C8.14809 21.8812 8.14809 22.1188 8.06338 22.5C7.96866 22.9262 7.83144 23.1553 7.56338 23.5C7.41441 23.6915 7.52877 24 7.77142 24L25.3263 24C25.811 24 26.2891 23.8871 26.7226 23.6704C26.949 23.5572 27.1634 23.4197 27.3432 23.2416C27.4222 23.1634 27.503 23.0776 27.5634 23C27.6134 22.9357 27.6622 22.8605 27.7084 22.7808C27.9937 22.2892 28.0634 21.7096 28.0634 21.1413V15.988C28.0634 15.6671 28.1381 15.3505 28.2816 15.0635C28.4653 14.6962 28.7515 14.3842 29.1318 14.2293Z" fill="white"/>
</svg>
