<svg width="26" height="26" viewBox="0 0 26 26" fill="none" xmlns="http://www.w3.org/2000/svg">
<path d="M22.0427 12.5432C22.0427 17.7899 17.7894 22.0432 12.5427 22.0432C7.29599 22.0432 3.04269 17.7899 3.04269 12.5432C3.04269 7.29651 7.29599 3.04321 12.5427 3.04321C17.7894 3.04321 22.0427 7.29651 22.0427 12.5432ZM7.54269 12.5432C7.54269 15.5794 9.50649 17.5432 12.5427 17.5432C15.5789 17.5432 17.5427 15.5794 17.5427 12.5432C17.5427 9.50701 15.5789 7.54321 12.5427 7.54321C9.50649 7.54321 7.54269 9.50701 7.54269 12.5432Z" fill="white"/>
<path d="M10.0427 0.0429267C9.54268 0.542601 9.54268 3.54236 9.54268 3.54236H15.5427C15.5427 3.54236 15.5427 0.542359 15.0427 0.0423476C14.9993 -0.00107004 10.1117 -0.02606 10.0427 0.0429267Z" fill="white"/>
<path d="M2.05285 5.3593C2.05262 6.06617 4.17377 8.18732 4.17377 8.18732L8.41641 3.94468C8.41641 3.94468 6.29509 1.82336 5.58798 1.82335C5.52658 1.82335 2.05288 5.2617 2.05285 5.3593Z" fill="white"/>
<path d="M23.4062 5.3593C23.4065 6.06617 20.9726 8.5 20.9726 8.5L16.5 4.48736C16.5 4.48736 19.164 1.82336 19.8711 1.82335C19.9325 1.82335 23.4062 5.2617 23.4062 5.3593Z" fill="white"/>
<path d="M23.0427 19.5424C23.0429 18.8355 21.0427 16.5423 21.0427 16.5423L16.5427 21.0424C16.5427 21.0424 18.8356 23.0423 19.5427 23.0423C19.6041 23.0423 23.0426 19.64 23.0427 19.5424Z" fill="white"/>
<path d="M2.04268 19.5423C2.04246 18.8354 4.5 16.585 4.5 16.585L8.54231 20.5427C8.54231 20.5427 6.2498 23.0423 5.54268 23.0423C5.48128 23.0423 2.04272 19.6399 2.04268 19.5423Z" fill="white"/>
<path d="M10.0427 25.0423C9.5427 24.6192 9.54269 21.5424 9.54269 21.5424H15.5427C15.5427 21.5424 15.5427 24.6189 15.0427 25.0424C14.9993 25.0791 10.1117 25.1008 10.0427 25.0423Z" fill="white"/>
<path d="M0.0426856 15.0424C0.54236 15.5424 3.54269 15.5424 3.54269 15.5424L3.54269 9.54236C3.54269 9.54236 0.54269 9.54236 0.0426788 10.0424C-0.000738814 10.0858 -0.0263012 14.9733 0.0426856 15.0424Z" fill="white"/>
<path d="M25.0427 15.0424C24.543 15.5424 21.5427 15.5424 21.5427 15.5424V9.54236C21.5427 9.54236 24.5427 9.54236 25.0427 10.0424C25.0861 10.0858 25.1117 14.9733 25.0427 15.0424Z" fill="white"/>
</svg>
