<svg viewBox="0 0 32 30" fill="none" xmlns="http://www.w3.org/2000/svg" id="shuffle">
<path d="M3.94657 4.5C2.56162 4.5 0 4.5 0 4.5V8.70216H3.95974H4.85385C4.85385 8.70216 5.02186 8.82 5.5 9C5.85878 9.13506 6.13343 9.26281 6.5 9.5C7.75884 10.3145 8 11 8 11C8 11 9.02369 12.4379 10 14L12.5 18L14 20.5L15.5 22.5L17 24L19 25L21 25.5H23.5V29L24 29.5C24.5 30 25.5 29.5 25.5 29.5C25.5 29.5 26.3958 28.5668 27 28C27.0964 27.9096 32 24.5 32 23.5V23L31 22L28 19.5C28 19.5 27.2248 18.6541 26.5 18C26.09 17.63 25 17 25 17L24.5 17L24 17C24 17 23.5 17.2929 23.5 18V21C23.5 21 20.8493 21.1746 20.5 21C20.253 20.8765 19.6953 20.6953 19.5 20.5L18.5 19.5L17.5 18L16.5 16.5L15 14L14 12.5L12.5 10C11.9142 9.02369 11.1858 7.70433 11 7.5C10.8142 7.29567 10.7617 7.26172 10.5 7L10 6.5L9.5 6L8.5 5.5L7.5 5L6 4.50001L4.5 4.5C5.13296 4.5 4.7262 4.5 3.94657 4.5Z" fill="currentColor"/>
<path d="M17 13L14.5 9L15.5025 7.22223C15.5025 7.22223 16.3695 6.41505 17 6C17.7294 5.51988 19 5 19 5L21 4.5H23.5V1L24 0.5C24.5 -1.90735e-06 25.5 0.5 25.5 0.5C25.5 0.5 32 5.5 32 6.5C32 7.6527 31.5 7.5 30.0573 8.72223C29.2471 9.4086 28 10.5 28 10.5C28 10.5 27.2273 11.0681 26.5025 11.7222C26.0924 12.0922 25.2078 12.7222 25.2078 12.7222C25.2078 12.7222 24.7761 13 24.5 13C24.2239 13 24.0025 12.7222 24.0025 12.7222C24.0025 12.7222 23.5025 12.4293 23.5025 11.7222V8.72223C23.5025 8.72223 20.8493 8.82535 20.5 9C20.253 9.12349 19.6953 9.30474 19.5 9.5C19.1095 9.89052 18.5025 10.2222 18.5025 10.2222L18 11L17.5025 11.7222L17 13Z" fill="currentColor"/>
<path d="M12 21L10 18L9.5 17L8 19C7.50294 19.6627 6.63508 20.4325 6.5 20.5C6.36492 20.5675 5.31377 21.3006 5 21.3006H0V25.5H1.5H6C6.5 25.5 8.5 24.5 10.5 23C10.6439 22.8921 12 21 12 21Z" fill="currentColor"/>
</svg>
