<svg width="25" height="25" viewBox="0 0 25 25" fill="none" xmlns="http://www.w3.org/2000/svg">
<path d="M21.5808 19.6349C21.994 19.9596 22.5956 19.8896 22.8879 19.4529C24.4579 17.1073 25.1933 14.2898 24.9565 11.4585C24.6933 8.30994 23.2475 5.37791 20.91 3.25219C18.5725 1.12647 15.5168 -0.0352167 12.3575 0.000812777C9.19815 0.0368423 6.16969 1.26792 3.88129 3.44639C1.59289 5.62486 0.214343 8.5891 0.0229546 11.7428C-0.168434 14.8965 0.841541 18.0057 2.84971 20.4449C4.85787 22.8841 7.71524 24.4724 10.847 24.8902C13.6633 25.2659 16.5135 24.6701 18.9335 23.2173C19.3841 22.9468 19.4835 22.3494 19.1796 21.9207V21.9207C18.8756 21.492 18.2835 21.395 17.8293 21.6593C15.8049 22.8373 13.438 23.3159 11.0987 23.0038C8.44371 22.6496 6.02137 21.3032 4.31895 19.2353C2.61652 17.1675 1.76031 14.5317 1.92256 11.8581C2.08481 9.18453 3.25348 6.67159 5.19347 4.82478C7.13347 2.97798 9.70085 1.93433 12.3792 1.90379C15.0575 1.87324 17.648 2.85807 19.6296 4.66015C21.6112 6.46223 22.8369 8.94787 23.0601 11.617C23.2567 13.9688 22.6622 16.3094 21.3861 18.2734C21.0998 18.7141 21.1675 19.3102 21.5808 19.6349V19.6349Z" fill="white"/>
<path d="M8 15L9.17818 16.0473C11.0726 17.7312 13.9274 17.7312 15.8218 16.0473L17 15" stroke="white" stroke-width="2" stroke-linecap="round"/>
<path d="M10 10V10C9.52464 7.86088 6.47536 7.86088 6 10V10" stroke="white" stroke-width="1.5" stroke-linecap="round"/>
<path d="M19 10V10C18.5246 7.86088 15.4754 7.86088 15 10V10" stroke="white" stroke-width="1.5" stroke-linecap="round"/>
</svg>
