<svg viewBox="0 0 13 18" fill="none" xmlns="http://www.w3.org/2000/svg" id="suggest">
<path d="M4.5 16.5V16H7.5V16.5C7.5 17.0523 7.05228 17.5 6.5 17.5H5.5C4.94772 17.5 4.5 17.0523 4.5 16.5Z" stroke="currentColor"/>
<path d="M7.5 16H4.5C3.94772 16 3.5 15.5523 3.5 15V13.5H8.5V15C8.5 15.5523 8.05228 16 7.5 16Z" stroke="currentColor"/>
<path d="M9.5 11L8.5 13H6V0H7C7 0 8.6365 0.399944 9.5 1C10.1803 1.47275 10.5273 1.81971 11 2.5C11.6001 3.3635 11.8306 3.96222 12 5C12.1259 5.77084 12.1694 6.23755 12 7C11.8106 7.85244 11.4554 8.25488 11 9C10.4909 9.83307 9.5 11 9.5 11Z" fill="currentColor"/>
<path d="M2.61133 11L3.61133 13H6.11133V7.25V1.5V0H5.11133C5.11133 0 3.47482 0.399944 2.61133 1C1.93103 1.47275 1.58408 1.81971 1.11133 2.5C0.511272 3.3635 0.280761 3.96222 0.111328 5C-0.0145235 5.77084 -0.058105 6.23755 0.111328 7C0.30076 7.85244 0.655978 8.25488 1.11133 9C1.62043 9.83307 2.61133 11 2.61133 11Z" fill="currentColor"/>
<path d="M6.41879 2.48719C6.4752 2.30219 6.37112 2.10463 6.18141 2.06697C5.70186 1.97179 5.20633 1.97788 4.72698 2.08643C4.13344 2.22084 3.58521 2.50769 3.13638 2.91867C2.68754 3.32964 2.35363 3.85055 2.16758 4.42998C2.01732 4.89794 1.9677 5.39101 2.02037 5.87707C2.04121 6.06936 2.22886 6.1904 2.4181 6.15046V6.15046C2.60734 6.11052 2.72604 5.9246 2.71003 5.73185C2.6796 5.36575 2.72144 4.99605 2.83445 4.64411C2.98327 4.18063 3.25036 3.76397 3.60938 3.43524C3.96839 3.1065 4.40691 2.87706 4.88167 2.76955C5.24219 2.68791 5.61413 2.67872 5.97614 2.7412C6.16674 2.77409 6.36237 2.67219 6.41879 2.48719V2.48719Z" fill="currentColor"/>
</svg>
