<svg width="26" height="26" viewBox="0 0 26 26" fill="none" xmlns="http://www.w3.org/2000/svg">
<rect x="4" width="22" height="22" rx="2" fill="white"/>
<circle cx="15" cy="7" r="4" fill="black"/>
<path d="M23 19C23 17.4087 22.1571 14.8826 20.6569 13.7574C19.1566 12.6321 17.1217 12 15 12C12.8783 12 10.8434 12.6321 9.34315 13.7574C7.84286 14.8826 7 17.4087 7 19L15 19H23Z" fill="black"/>
<path d="M3.5 23.5H22C22 24.432 21.5159 25.2971 20.7215 25.7845L20.3704 26H2C0.895431 26 0 25.1045 0 24V5.49995L0.167931 5.24806C0.687763 4.46834 1.56288 4 2.5 4V22.5C2.5 23.0522 2.94772 23.5 3.5 23.5Z" fill="white"/>
</svg>
