<svg viewBox="0 0 24 28" fill="none" xmlns="http://www.w3.org/2000/svg" id="trash">
<path d="M2 6.70374L22.3704 6.70373" stroke="white" stroke-width="3" stroke-linecap="round"/>
<path d="M7 6V6C7 3.79086 8.79086 2 11 2H13C15.2091 2 17 3.79086 17 6V6" stroke="white" stroke-width="3" stroke-linecap="round"/>
<path d="M3.7618 27.0995L2.10995 10.5809C2.05108 9.99226 2.51337 9.48145 3.10499 9.48145H12.1852H21.2654C21.857 9.48145 22.3193 9.99226 22.2604 10.5809L20.6086 27.0995C20.5574 27.6107 20.1273 28 19.6135 28H4.75684C4.24309 28 3.81292 27.6107 3.7618 27.0995Z" fill="white"/>
<path d="M7.55556 12.2593L8.48148 25.2222" stroke="currentColor" stroke-width="2" stroke-linecap="round"/>
<path d="M12.1852 25.2222L12.1852 12.2593" stroke="currentColor" stroke-width="2" stroke-linecap="round"/>
<path d="M16.8148 12.2593L15.8889 25.2222" stroke="currentColor" stroke-width="2" stroke-linecap="round"/>
</svg>
