<svg width="26" height="15" viewBox="0 0 26 15" fill="none" xmlns="http://www.w3.org/2000/svg">
<circle cx="12.5" cy="7.5" r="2.5" fill="#9B9B9B"/>
<path d="M9.5 0.5C10.8506 0.213388 13 0 13 0V1V2L12 2.25L11 2.5L10.5765 2.64117C9.86856 2.87715 9.2253 3.27471 8.69764 3.80236C8.23734 4.26266 7.87534 4.81165 7.63358 5.41605L7.52651 5.68371C7.18212 6.5447 7.08062 7.4837 7.23307 8.39839C7.40667 9.44004 7.90344 10.4034 8.65015 11.1502C9.20805 11.7081 9.88968 12.1299 10.6382 12.3794L11 12.5L12.5 12.8453V15C11.835 15 11.1715 14.9343 10.5194 14.8039L10.2028 14.7406C9.40261 14.5805 8.61878 14.3475 7.86112 14.0444L7.56725 13.9269C6.85689 13.6428 6.1704 13.3022 5.51434 12.9086C4.50858 12.3051 3.58062 11.5806 2.75124 10.7512L2.415 10.415C1.80577 9.80577 1.24055 9.15406 0.723593 8.46479L0.284718 7.87962C0.114099 7.65213 0.105484 7.34177 0.263222 7.10517C0.753209 6.37019 1.3146 5.6854 1.93921 5.06079L3.5 3.5C5.15368 2.17706 7.01319 1.09715 9.07125 0.597968C9.21933 0.562051 9.36315 0.529041 9.5 0.5Z" fill="#9B9B9B"/>
<path d="M13 0V2L14.5 2.5L14.9235 2.64117C15.6314 2.87715 16.2747 3.27471 16.8024 3.80236C17.2627 4.26266 17.6247 4.81165 17.8664 5.41605L17.9735 5.68371C18.3179 6.5447 18.4194 7.4837 18.2669 8.39839C18.0933 9.44004 17.5966 10.4034 16.8498 11.1502C16.2919 11.7081 15.6103 12.1299 14.8618 12.3794L14.5 12.5L12.5 12.8453V15H12.6771C13.5569 15 14.4345 14.9131 15.2972 14.7406C16.0974 14.5805 16.8812 14.3475 17.6389 14.0444L17.9327 13.9269C18.6431 13.6428 19.3296 13.3022 19.9857 12.9086C20.9914 12.3051 21.9194 11.5806 22.7488 10.7512L23.085 10.415C23.6942 9.80577 24.2595 9.15406 24.7764 8.46479L25.2153 7.87962C25.3859 7.65213 25.3945 7.34177 25.2368 7.10517C24.7468 6.37019 24.1854 5.6854 23.5608 5.06079L22 3.5C20.3498 2.17985 18.4536 1.20102 16.4216 0.620463L16 0.5L13 0Z" fill="#9B9B9B"/>
</svg>
