<svg width="23" height="22" viewBox="0 0 23 22" fill="none" xmlns="http://www.w3.org/2000/svg">
<ellipse cx="11.5" cy="10" rx="11.5" ry="10" fill="white"/>
<path d="M3.85089 22H2.5C2.64022 21.7196 2.87312 21.3827 3.11407 21.066C3.66346 20.3441 4.094 19.53 4.27192 18.6404L4.5 17.5L9 19.5C8.01356 20.4864 6.81099 21.2297 5.48754 21.6708L5.1158 21.7947C4.70793 21.9307 4.28082 22 3.85089 22Z" fill="white"/>
<rect x="9" y="3" width="5" height="9" rx="2.5" fill="black"/>
<path d="M16 8C16 9.5913 15.5259 11.1174 14.682 12.2426C13.8381 13.3679 12.6935 14 11.5 14C10.3065 14 9.16193 13.3679 8.31802 12.2426C7.47411 11.1174 7 9.5913 7 8L8 8V8.58421C8 9.1897 8.10544 9.79214 8.34613 10.3477C8.5458 10.8086 8.79676 11.3386 9 11.6096C9.71799 12.5669 10.4846 13 11.5 13C12.5154 13 13.282 12.5669 14 11.6096C14.3499 11.143 14.4413 10.7824 14.682 10.1869C14.9351 9.56043 15 8.69407 15 8H16Z" fill="black"/>
<path d="M11 15V13.5H12V15H14C14.2761 15 14.5 15.2239 14.5 15.5C14.5 15.7761 14.2761 16 14 16H9C8.72386 16 8.5 15.7761 8.5 15.5C8.5 15.2239 8.72386 15 9 15H11Z" fill="black"/>
</svg>
