<svg width="31" height="25" viewBox="0 0 31 25" fill="none" xmlns="http://www.w3.org/2000/svg">
<path d="M20 6.5C20 6.5 20.6757 7.68922 21 8.5C21.1775 8.94364 21.349 9.36969 21.4435 9.65315C21.7466 10.5626 22 11.5887 22 12C22 13.5 21.7647 13.706 21.5 14.5C21 16 20 18 20 18" stroke="white" stroke-width="3" stroke-linecap="round"/>
<path d="M24.5 1.5C24.5 1.5 26.1324 3.76486 27 5.5C27.5 6.5 27.5 6.5 27.887 7.3063C28.1176 7.78679 28.2673 8.29929 28.3634 8.80654C28.6129 10.124 28.5 11.4061 28.5 12C28.5 13.5 28.4574 16.0853 28 17C26.5 20 24.5 23 24.5 23" stroke="white" stroke-width="3" stroke-linecap="round"/>
<path d="M5.51006 7.99993H1.01006C0.520792 7.99993 0.0112342 8.2654 0.0100588 8.75467C0.00346401 11.4999 0.000389557 13.4999 0.0100588 15.4999C0.0127289 16.0522 0.457774 16.4999 1.01006 16.4999H5.51006C6.00346 16.4999 5.5 16.4999 8.5 18.9999C9.22044 19.6003 10.268 20.4219 10.7498 20.7976C10.9231 20.9327 11.0867 21.0783 11.2483 21.227C11.6015 21.552 12.2983 22.1491 13 22.4999C13.2168 22.6083 13.511 22.627 13.7814 22.6117C14.2443 22.5854 14.6203 22.2642 14.8309 21.8511C14.9487 21.6203 15.01 21.3717 15.0098 21.1126C15.0082 18.9564 15.001 8.3217 15.0101 2.49995C15.0111 1.79592 13.6815 1.41505 13.5101 1.49993C12.8469 1.82818 12.408 2.15645 12.1847 2.34322C12.0647 2.44356 11.9522 2.54883 11.8328 2.64979C10.7903 3.53104 5.50411 7.99993 5.51006 7.99993Z" fill="white"/>
</svg>
