<svg viewBox="0 0 47 39" fill="none" xmlns="http://www.w3.org/2000/svg" id="createChat">
<path d="M32.2415 13.225C31.0943 11.9907 28.7895 10.636 28.7895 10.636C28.7895 10.636 29.4633 14.9294 28.7895 17.5401C28.2246 19.7292 26.2004 22.7182 26.2004 22.7182L22.7484 26.1703C21.4004 27.5183 20.7124 27.3797 19.2963 27.8963C17.9909 28.3727 17.2214 28.5732 15.8443 28.7593C14.1743 28.9849 11.5292 28.7593 11.5292 28.7593C11.5292 28.7593 12.4737 30.4178 13.2553 31.3484C14.6433 33.0009 15.6015 33.9169 17.5703 34.8004C19.7446 35.7761 21.2409 35.9087 23.6114 35.6634C25.7317 35.444 28.7895 33.9374 28.7895 33.9374C28.7895 33.9374 30.5702 35.24 32.2415 35.6634C34.8306 36.5264 35.1299 35.5447 35.6936 35.6634L34.8306 33.0744V29.6223L35.6936 26.1703C35.6936 26.1703 36.383 21.8728 35.6936 19.2661C34.9989 16.6393 32.9168 13.9514 32.2415 13.225Z" fill="white"/>
<path d="M3.76214 27.0329C2.76836 27.2194 1.17306 27.0329 1.17306 27.0329L2.03608 24.4439C2.03608 24.4439 2.17316 22.6925 2.03611 21.584C1.87816 20.3064 1.54858 19.6341 1.17309 18.4028C0.862201 17.3834 0.533388 16.8559 0.310076 15.8138C-0.113627 13.8365 -0.0929609 12.6173 0.310076 10.6357C0.671812 8.85715 1.04466 7.84085 2.03611 6.32063C3.07758 4.72371 3.98763 4.04465 5.48817 2.86857C7.03489 1.65627 8.63015 0.636035 9.80321 0.279465C10.7277 -0.00155513 13.5293 -0.174836 15.8444 0.279515C18.3631 0.773842 19.877 1.27033 21.8854 2.86857C23.5741 4.2123 24.327 5.27681 25.3374 7.18365C26.6389 9.63934 27.2062 11.3122 27.0635 14.0878C26.9157 16.9635 25.8195 18.8058 24.4744 20.9918C23.3437 22.8299 21.0224 24.4439 21.0224 24.4439C21.0224 24.4439 18.612 25.6858 16.7073 26.1699C15.0741 26.5852 13.2553 27.0331 12.3923 27.0329C10.2607 27.0329 7.2142 25.3069 7.2142 25.3069C7.2142 25.3069 5.24356 26.7552 3.76214 27.0329Z" fill="white"/>
<path d="M6.90413 15.814C7.85739 15.814 8.63016 15.0412 8.63016 14.088C8.63016 13.1347 7.85739 12.3619 6.90413 12.3619C5.95087 12.3619 5.1781 13.1347 5.1781 14.088C5.1781 15.0412 5.95087 15.814 6.90413 15.814Z" fill="black"/>
<path d="M13.8082 15.814C14.7615 15.814 15.5343 15.0412 15.5343 14.088C15.5343 13.1347 14.7615 12.3619 13.8082 12.3619C12.855 12.3619 12.0822 13.1347 12.0822 14.088C12.0822 15.0412 12.855 15.814 13.8082 15.814Z" fill="black"/>
<path d="M20.7124 15.814C21.6656 15.814 22.4384 15.0412 22.4384 14.088C22.4384 13.1347 21.6656 12.3619 20.7124 12.3619C19.7591 12.3619 18.9863 13.1347 18.9863 14.088C18.9863 15.0412 19.7591 15.814 20.7124 15.814Z" fill="black"/>
<circle cx="35.5" cy="27.5" r="11.5" fill="#0F9C72"/>
<line x1="35.5" y1="21.5" x2="35.5" y2="33.5" stroke="white" stroke-width="3" stroke-linecap="round"/>
<line x1="41.5" y1="27.5" x2="29.5" y2="27.5" stroke="white" stroke-width="3" stroke-linecap="round"/>
</svg>
