<svg viewBox="0 0 30 31" fill="none" xmlns="http://www.w3.org/2000/svg" id="female">
<path d="M27 13C27 19.6274 21.6274 25 15 25C8.37258 25 3 19.6274 3 13C3 6.37258 8.37258 1 15 1C21.6274 1 27 6.37258 27 13ZM5.05857 13C5.05857 18.4905 9.5095 22.9414 15 22.9414C20.4905 22.9414 24.9414 18.4905 24.9414 13C24.9414 7.5095 20.4905 3.05857 15 3.05857C9.5095 3.05857 5.05857 7.5095 5.05857 13Z" fill="currentColor"/>
<path d="M1 8.5L1.36862 5.55104C1.45525 4.85798 1.68561 4.19064 2.04496 3.59173L2.18252 3.36247C2.71004 2.48327 3.53467 1.82178 4.50737 1.49754L4.72874 1.42375C5.54958 1.15014 6.44083 1.17633 7.24418 1.49767V1.49767C7.8914 1.75656 8.1364 2.54539 7.74974 3.1254L7.46265 3.55603C6.83873 4.4919 5.92068 5.19311 4.85362 5.54879L4.72278 5.59241C3.91864 5.86045 3.18796 6.31204 2.58859 6.91141L1 8.5ZM1 8.5V10.5" stroke="currentColor" stroke-width="2" stroke-linecap="round"/>
<path d="M28.5 8.5L28.1314 5.55104C28.0447 4.85798 27.8144 4.19064 27.455 3.59173L27.3175 3.36247C26.79 2.48327 25.9653 1.82178 24.9926 1.49754L24.7713 1.42375C23.9504 1.15014 23.0592 1.17633 22.2558 1.49767V1.49767C21.6086 1.75656 21.3636 2.54539 21.7503 3.1254L22.0374 3.55603C22.6613 4.4919 23.5793 5.19311 24.6464 5.54879L24.7772 5.59241C25.5814 5.86045 26.312 6.31204 26.9114 6.91141L28.5 8.5ZM28.5 8.5V10.5" stroke="currentColor" stroke-width="2" stroke-linecap="round"/>
<path d="M4 11.5H7.94458C7.97905 11.5 8.0111 11.4822 8.02938 11.453L10.4055 7.6512C10.4469 7.58498 10.5448 7.58963 10.5797 7.65948L12.4724 11.4447C12.4893 11.4786 12.5239 11.5 12.5618 11.5H17.4382C17.4761 11.5 17.5107 11.4786 17.5276 11.4447L19.4203 7.65948C19.4552 7.58963 19.5531 7.58498 19.5945 7.6512L21.9706 11.453C21.9889 11.4822 22.0209 11.5 22.0554 11.5H26" stroke="currentColor" stroke-width="2"/>
<path d="M15 24V29.5M12.5 27.5H17" stroke="currentColor" stroke-width="2" stroke-linecap="round"/>
<circle cx="11" cy="15" r="1" fill="currentColor"/>
<circle cx="19" cy="15" r="1" fill="currentColor"/>
<path d="M11.5 19C11.5 19 12.4696 19.7904 13.5 20C14.6481 20.2335 15.3697 20.3083 16.5 20C17.3425 19.7702 18.5 19 18.5 19" stroke="currentColor" stroke-width="2" stroke-linecap="round"/>
</svg>
