<svg viewBox="0 0 28 25" fill="none" xmlns="http://www.w3.org/2000/svg" id="find-friends">
<circle cx="7.69233" cy="4.48719" r="4.48719" fill="white"/>
<path d="M14.7436 17.6282C14.7436 15.673 13.9669 13.798 12.5845 12.4155C11.202 11.033 9.32693 10.2563 7.37181 10.2563C5.41668 10.2563 3.54163 11.033 2.15915 12.4155C0.776671 13.798 2.95216e-07 15.673 0 17.6282L7.37181 17.6282H14.7436Z" fill="white"/>
<circle cx="17.3077" cy="4.68759" r="3.64584" fill="white"/>
<path d="M23.9584 16.7068C23.9584 15.3361 23.624 13.9926 22.9928 12.8271C22.3616 11.6616 21.4585 10.7203 20.3851 10.1089C19.3117 9.49752 18.1104 9.24028 16.9161 9.36607C15.7218 9.49186 14.319 9.89188 13.3614 10.7172C15.4022 12.4563 16.1258 16.7068 16.1258 16.7068L23.9584 16.7068Z" fill="white"/>
<circle cx="20.5" cy="16.5" r="7.5" fill="#0F9C72"/>
<path d="M24.7391 20.087C23.6476 19.1304 22.3168 17.8123 22.3168 17.8123M22.3168 17.8123L21.5541 18.3082C20.5497 18.9611 19.2436 18.9389 18.2569 18.2595V18.2595C17.5281 17.7576 17.0604 16.9495 16.9933 16.0671V16.0671C16.9414 15.3858 17.1302 14.7069 17.5258 14.1497V14.1497C18.076 13.3747 18.9684 12.9131 19.9189 12.9131H19.9806C21.0791 12.9131 22.1008 13.517 22.6433 14.4722V14.4722C23.0289 15.1511 23.1877 15.9745 22.9009 16.7007C22.8926 16.7218 22.8842 16.7424 22.8758 16.7625C22.6971 17.1891 22.3168 17.8123 22.3168 17.8123Z" stroke="white" stroke-linecap="round"/>
</svg>
