<svg viewBox="0 0 20 18" fill="none" xmlns="http://www.w3.org/2000/svg" id="like">
<path d="M5.5 0H5.64151C6.52731 0 7.3933 0.2622 8.13034 0.753557C8.37618 0.917452 8.60523 1.10523 8.81415 1.31415L10 2.5L11 10L10 17.5L6 14.5L3.10708 12.0204C2.70325 11.6742 2.33277 11.291 2.00051 10.8756L1.89643 10.7455C0.983327 9.60416 0.404034 8.23227 0.222736 6.78189L0.156104 6.24883C0.0533398 5.42672 0.13599 4.59203 0.397988 3.80604C0.788165 2.6355 1.55737 1.62842 2.584 0.944001L2.75192 0.83205C3.56573 0.289512 4.52192 0 5.5 0Z" fill="currentColor"/>
<path d="M14.5 0H14.3585C13.4727 0 12.6067 0.2622 11.8697 0.753557C11.6238 0.917452 11.3948 1.10523 11.1858 1.31415L10 2.5L8.5 10L10 17.5L14 14.5L16.8929 12.0204C17.2968 11.6742 17.6672 11.291 17.9995 10.8756L18.1036 10.7455C19.0167 9.60416 19.596 8.23227 19.7773 6.78189L19.8439 6.24883C19.9467 5.42672 19.864 4.59203 19.602 3.80604C19.2118 2.6355 18.4426 1.62842 17.416 0.944001L17.2481 0.83205C16.4343 0.289512 15.4781 0 14.5 0Z" fill="currentColor"/>
</svg>
