<svg viewBox="0 0 75 100" fill="none" xmlns="http://www.w3.org/2000/svg" id="lock">
<path d="M74.5 41V95C74.5 97.7614 72.2614 100 69.5 100H5C2.23858 100 0 97.7614 0 95V41C0 39.3431 1.34315 38 3 38H71.5C73.1569 38 74.5 39.3431 74.5 41Z" fill="currentColor"/>
<path d="M68.0005 38.5C68.4708 34.1773 68.3446 25.657 67.0145 21.5172C65.6844 17.3774 63.4982 13.5638 60.5981 10.324C57.698 7.08416 54.1487 4.49071 50.1809 2.71208C46.2131 0.933457 41.9155 0.00944434 37.5673 7.20201e-05C33.2191 -0.0093003 28.9175 0.896177 24.9421 2.65768C20.9666 4.41919 17.4062 6.99731 14.4922 10.2246C11.5781 13.4518 10.8488 17.3832 9.50086 21.5172C8.15292 25.6512 8.04913 33.6753 8.5008 38H21.0005C20.7308 35.4184 20.1958 27.9678 21.0005 25.5C21.8051 23.0322 22.0263 20.5248 23.7658 18.5983C25.5054 16.6718 27.6307 15.1328 30.0038 14.0813C32.3769 13.0297 34.9447 12.4892 37.5403 12.4948C40.136 12.5004 42.7014 13.052 45.07 14.1137C47.4385 15.1755 48.7692 17.066 50.5005 19C52.2317 20.934 53.2065 24.0288 54.0005 26.5C54.7944 28.9712 54.2812 36.9196 54.0005 39.5L68.0005 38.5Z" fill="currentColor"/>
<circle cx="37.5" cy="62.5" r="8.5" fill="#2C2C2C"/>
<path d="M43.1981 80.7357L41.7314 69.7357C41.5989 68.7421 40.7514 68 39.749 68H34.751C33.7486 68 32.9011 68.7421 32.7686 69.7357L31.3019 80.7357C31.142 81.9346 32.0748 83 33.2844 83H41.2156C42.4252 83 43.358 81.9346 43.1981 80.7357Z" fill="#2C2C2C" stroke="#2C2C2C" stroke-width="3"/>
</svg>
