<svg viewBox="0 0 27 25" fill="none" xmlns="http://www.w3.org/2000/svg" id="photos">
<mask id="path-1-inside-1_1216_5034" fill="white">
<rect x="5" width="22" height="18" rx="2"/>
</mask>
<rect x="5" width="22" height="18" rx="2" stroke="currentColor" stroke-width="5" mask="url(#path-1-inside-1_1216_5034)"/>
<path d="M10.0226 10.0569L7.5 13V15.5H24.5V10.5L21.6272 6.80643C21.2315 6.29761 20.623 6 19.9784 6C19.3584 6 18.7705 6.27536 18.3737 6.7516L14 12L12.4788 10.0985C12.1762 9.72022 11.718 9.5 11.2335 9.5C10.7679 9.5 10.3256 9.70344 10.0226 10.0569Z" fill="currentColor"/>
<circle cx="11.5" cy="5.5" r="2.5" fill="currentColor"/>
<path d="M0 17.5L3 8V15.0371C3 15.6732 3.12138 16.3034 3.35762 16.894L3.40579 17.0145C3.79129 17.9782 4.48189 18.7891 5.37196 19.3232C6.11009 19.7661 6.95471 20 7.81551 20H23.5L22.7993 22.8026C22.6093 23.5626 22.0968 24.2016 21.3961 24.552C20.8182 24.8409 20.1554 24.9116 19.5295 24.7512L1 20C0.359711 19.3597 0 18.4913 0 17.5858V17.5Z" fill="currentColor"/>
</svg>
