<svg viewBox="0 0 20 21" fill="none" xmlns="http://www.w3.org/2000/svg" id="request">
<path d="M6 19.5H2C1.44772 19.5 1 19.0523 1 18.5V2C1 1.44772 1.44772 1 2 1H10M10 1C10 1 13.0474 3.74264 15 5.5M10 1V4.5C10 5.05228 10.4466 5.5 10.9989 5.5C12.06 5.5 13.7532 5.5 15 5.5M15 5.5C15 6.08579 15 7 15 7" stroke="currentColor" stroke-width="1.5" stroke-linecap="round"/>
<path d="M4 8.5H12" stroke="currentColor" stroke-width="1.5" stroke-linecap="round"/>
<path d="M4 12H10" stroke="currentColor" stroke-width="1.5" stroke-linecap="round"/>
<path d="M4 15H7" stroke="currentColor" stroke-width="1.5" stroke-linecap="round"/>
<path d="M18.8634 10.8634L17.1414 9.14142C17.0633 9.06332 16.9367 9.06332 16.8586 9.14142L9.7266 16.2734C9.57923 16.4208 9.48158 16.6105 9.44732 16.8161L9.05461 19.1723C9.02983 19.321 9.17215 19.4426 9.31513 19.395L11.7587 18.5804C11.9171 18.5276 12.0597 18.4361 12.1735 18.3141L18.8682 11.1413C18.9417 11.0625 18.9396 10.9396 18.8634 10.8634Z" stroke="currentColor" stroke-width="1.5" stroke-linecap="round"/>
</svg>
