<svg viewBox="0 0 25 25" fill="none" xmlns="http://www.w3.org/2000/svg" id="search">
<path d="M23 22.5C20.0711 19.7663 16.5 16 16.5 16M16.5 16L14.6364 17.2902C11.8617 19.2111 8.17405 19.161 5.45262 17.1653V17.1653C3.5796 15.7917 2.40462 13.6646 2.23913 11.3478L2.20036 10.805C2.07048 8.98676 2.54875 7.17688 3.55992 5.66011L3.64637 5.53044C5.11679 3.32482 7.59223 2 10.2431 2V2C13.1711 2 15.8607 3.61378 17.2386 6.1973L17.4771 6.64451C18.46 8.48747 18.8318 10.6475 18.1412 12.6187C18.0947 12.7514 18.0475 12.8792 18 13C17.5205 14.2189 16.5 16 16.5 16Z" stroke="currentColor" stroke-width="4" stroke-linecap="round"/>
</svg>
